<svg xmlns="http://www.w3.org/2000/svg" width="40" height="40" fill="none"><defs><clipPath id="a"><path d="M0 0h40v40H0z"/></clipPath><clipPath id="b"><path d="M0 0h40v40H0z"/></clipPath></defs><g clip-path="url(#a)"><g clip-path="url(#b)"><path fill="#080809" d="M32 0H8a7.8 7.8 0 0 0-8 7.8v24.4A7.8 7.8 0 0 0 8 40h24a7.8 7.8 0 0 0 8-7.8V7.8A7.8 7.8 0 0 0 32 0Z"/><path fill="#F0F0F0" d="M17.532 4.193c-8.715 1.36-14.7 9.559-13.34 18.275 1.361 8.715 9.56 14.7 18.276 13.34 8.715-1.361 14.7-9.56 13.34-18.276-1.361-8.715-9.56-14.7-18.276-13.34Zm.323 2.066c.993-.155 1.979-.2 2.943-.144-1.263 1.558-3.166 3.161-6.031 4.361-2.71 1.135-5.49 2.301-7.623 4.227 1.795-4.337 5.743-7.668 10.711-8.444ZM6.259 22.145a13.942 13.942 0 0 1-.166-2.226 8.991 8.991 0 0 1 .988-1.987c1.827-2.735 5.066-4.091 8.494-5.527 3.905-1.635 6.223-3.968 7.576-5.95.723.17 1.428.396 2.108.675a10.984 10.984 0 0 1-.961 2.157c-1.03 1.783-3.13 4.334-7.3 6.36-2.767 1.346-6.211 3.022-8.245 6.784-.564 1.044-1.006 2.21-1.327 3.512a13.875 13.875 0 0 1-1.167-3.798Zm2.81 6.447c.905-7.201 4.794-9.094 8.845-11.065 3.699-1.798 5.992-3.987 7.415-5.972-.6 3.323-2.14 6.488-4.6 9.442-2.523 3.026-5.024 6.717-4.437 11.135.06.448.15.897.272 1.342a14.001 14.001 0 0 1-7.494-4.882h-.001Zm13.265-6.257c4.388-5.265 5.343-10.417 5.372-13.811V8.43a13.91 13.91 0 0 1 5.26 6.535 15.74 15.74 0 0 1-.94 3.417c-1.369 3.4-3.746 5.942-7.069 7.557-2.252 1.096-4.722 2.444-6.659 4.804.03-3.138 1.936-5.889 4.036-8.409Zm-.188 11.406a13.92 13.92 0 0 1-3.248.124 7.557 7.557 0 0 1-.075-.198c1.557-2.754 3.953-4.34 7.048-5.845 4.623-2.248 6.907-5.8 8.021-8.482.339 7.003-4.667 13.297-11.746 14.402v-.001Z"/></g></g></svg>