<?xml version="1.0" encoding="UTF-8"?>
<svg width="639px" height="726px" viewBox="0 0 639 726" version="1.1" xmlns="http://www.w3.org/2000/svg" xmlns:xlink="http://www.w3.org/1999/xlink">
    <title>Path</title>
    <g id="New-Logos" stroke="none" stroke-width="1" fill="none" fill-rule="evenodd">
        <g id="Dark_1080x1080" transform="translate(-221, -177)" fill="#FFFFFF">
            <path d="M823.77,273.22 C814.94,260.54 804.65,248.73 793.09,238.09 C752.04,200.31 695.44,177 632.81,177 L221,177 L271.24,264.44 C282.32,283.73 302.88,295.63 325.13,295.63 L445.7,295.63 L632.82,295.44 C659.93,295.44 684.41,305.54 702.08,321.88 C719.85,338.15 730.81,360.68 730.81,385.55 C730.81,435.38 686.96,475.74 632.82,475.74 L573.5,475.55 L298.23,475.55 L348.47,562.99 C359.55,582.28 380.11,594.18 402.36,594.18 L426.77,594.18 C437.22,594.18 445.69,602.65 445.69,613.1 L445.69,902.78 L537.18,832.14 C555.66,817.87 566.49,795.84 566.49,772.48 L566.49,613.1 C566.49,602.65 574.96,594.18 585.41,594.18 L632.82,594.18 C722.9,594.18 800.65,545.83 837.2,475.74 C851.47,448.44 859.46,417.86 859.46,385.55 C859.46,344.17 846.37,305.68 823.77,273.22 Z" id="Path"></path>
        </g>
    </g>
</svg>